<svg width="150" height="20" viewBox="0 0 150 20" fill="none" xmlns="http://www.w3.org/2000/svg">
<path d="M84.3183 5.65569H81.1836L77.4971 11.9736L73.8106 5.65569H70.4198L75.7622 14.797V19.8752H78.9558V14.8376L84.3183 5.65624V5.65569ZM59.8326 17.1732V8.3577H62.7506C65.4908 8.3577 67.2851 10.0439 67.2851 12.7655C67.2851 15.487 65.4913 17.1732 62.7506 17.1732H59.8326ZM56.639 19.8747H62.9084C67.4229 19.8747 70.5181 17.0713 70.5181 12.7649C70.5181 8.45852 67.4229 5.65515 62.9084 5.65515H56.639V19.8752V19.8747ZM46.5848 17.2339V13.9427H52.992V11.3833H46.5848V8.29591H53.84V5.65515H43.4107V19.8752H54.0962V17.2345H46.5848V17.2339ZM33.3564 17.2339V13.9427H39.7636V11.3833H33.3564V8.29591H40.6116V5.65515H30.1823V19.8752H40.8678V17.2345H33.3564V17.2339ZM24.4258 10.8147C24.4258 12.3589 23.44 13.2929 21.4884 13.2929H18.8861V8.33656H21.4884C23.44 8.33656 24.4258 9.25042 24.4258 10.8147ZM27.9151 19.8747L24.8198 15.3038C26.6136 14.5119 27.6589 12.9476 27.6589 10.8147C27.6589 7.62596 25.3522 5.65515 21.6657 5.65515H15.692V19.8752H18.8856V15.9141H21.823L24.4842 19.8752H27.9145L27.9151 19.8747Z" fill="black"/>
<path d="M136.667 17.2345V13.9434H143.074V11.3839H136.667V8.29652H143.922V5.65576H133.493V19.8753H144.178V17.2345H136.667ZM130.22 19.8753L130.181 5.65576H127.559L122.472 14.4919L117.307 5.65576H114.665V19.8753H117.662V11.5265L121.704 18.3723H123.143L127.204 11.3438L127.223 19.8753H130.22ZM103.27 14.3298L105.459 8.88516L107.647 14.3298H103.27ZM109.875 19.8753H113.226L107.056 5.65576H103.901L97.7504 19.8753H101.023L102.245 16.828H108.653L109.875 19.8753H109.875Z" fill="black"/>
<path d="M149.376 0H143.901V2.82071H146.639V5.65551H149.376V2.82071V0Z" fill="black"/>
<path d="M13.8981 11.1746V13.0809C13.8981 13.392 13.8755 13.7032 13.8255 14.0094L13.8245 14.0154C13.1874 17.9212 9.59773 20.5555 5.80707 19.8991C3.95014 19.5771 2.38937 18.5261 1.35518 17.0773C0.278369 15.5694 -0.227683 13.6305 0.0974109 11.638C0.123187 11.4819 0.153171 11.3269 0.188416 11.1741C0.924875 7.96039 3.71658 5.65569 6.96068 5.65515H11.2016V8.47315H10.0485L6.96068 8.47369C4.62768 8.47478 2.73709 10.4239 2.73761 12.8273C2.73761 15.2306 4.62979 17.1786 6.96278 17.1781C8.86022 17.1776 10.5246 15.8734 11.0322 13.9894H7.44148V11.1735L13.8986 11.1746H13.8981Z" fill="black"/>
<path d="M97.751 11.1752V13.0815C97.751 13.3926 97.7283 13.7037 97.6784 14.01L97.6773 14.0159C97.0403 17.9218 93.4506 20.556 89.6599 19.8996C87.803 19.5777 86.2422 18.5267 85.208 17.0778C84.1307 15.5694 83.6246 13.6305 83.9503 11.638C83.976 11.4819 84.006 11.3269 84.0413 11.1741C84.7777 7.96039 87.5694 5.65569 90.8135 5.65515H95.0545V8.47315H93.9014L90.8135 8.47369C88.4805 8.47478 86.5899 10.4239 86.5905 12.8273C86.5905 15.2306 88.4826 17.1786 90.8156 17.1781C92.7131 17.1776 94.3775 15.8734 94.8851 13.9894H91.2943V11.1735L97.7515 11.1746L97.751 11.1752Z" fill="black"/>
</svg>
